<?xml version="1.0" encoding="UTF-8" standalone="no" ?>
<!DOCTYPE svg PUBLIC "-//W3C//DTD SVG 1.1//EN" "http://www.w3.org/Graphics/SVG/1.1/DTD/svg11.dtd">
<svg xmlns="http://www.w3.org/2000/svg" xmlns:xlink="http://www.w3.org/1999/xlink" version="1.1" width="1080" height="1080" viewBox="0 0 1080 1080" xml:space="preserve">
<desc>Created with Fabric.js 5.2.4</desc>
<defs>
</defs>
<rect x="0" y="0" width="100%" height="100%" fill="transparent"></rect>
<g transform="matrix(1 0 0 1 540 540)" id="57fbfd38-6311-4ba3-a8fc-11236e33e574"  >
<rect style="stroke: none; stroke-width: 1; stroke-dasharray: none; stroke-linecap: butt; stroke-dashoffset: 0; stroke-linejoin: miter; stroke-miterlimit: 4; fill: rgb(255,255,255); fill-rule: nonzero; opacity: 1; visibility: hidden;" vector-effect="non-scaling-stroke"  x="-540" y="-540" rx="0" ry="0" width="1080" height="1080" />
</g>
<g transform="matrix(1 0 0 1 540 540)" id="b8d8c9fe-9ad5-4380-8ffe-8cee7cc7f681"  >
</g>
<g transform="matrix(15.91 0 0 15.91 523.25 540)"  >
<g style="" vector-effect="non-scaling-stroke"   >
		<g transform="matrix(1 0 0 1 28.13 -18.75)"  >
<path style="stroke: none; stroke-width: 1; stroke-dasharray: none; stroke-linecap: butt; stroke-dashoffset: 0; stroke-linejoin: miter; stroke-miterlimit: 4; fill: rgb(255,255,255); fill-rule: nonzero; opacity: 1;" vector-effect="non-scaling-stroke"  transform=" translate(-58.13, -1.25)" d="M 56.25 1.25 C 56.25 1.94036 56.8096 2.5 57.5 2.5 L 58.75 2.5 C 59.4404 2.5 60 1.94036 60 1.25 C 60 0.559648 59.4404 0.00000349691 58.75 0.00000349691 L 57.5 0.00000349691 C 56.8096 0.00000349691 56.25 0.559648 56.25 1.25 Z" stroke-linecap="round" />
</g>
		<g transform="matrix(1 0 0 1 0 0)"  >
<path style="stroke: none; stroke-width: 1; stroke-dasharray: none; stroke-linecap: butt; stroke-dashoffset: 0; stroke-linejoin: miter; stroke-miterlimit: 4; fill: rgb(255,255,255); fill-rule: nonzero; opacity: 1;" vector-effect="non-scaling-stroke"  transform=" translate(-30, -20)" d="M 20 40 L 26.0723 40 L 24.3045 38.2322 C 23.8357 37.7634 23.1998 37.5 22.5368 37.5 L 20 37.5 C 10.335 37.5 2.5 29.665 2.5 20 C 2.5 10.335 10.335 2.50001 20 2.5 L 40 2.5 C 49.665 2.5 57.5 10.335 57.5 20 C 57.5 29.665 49.665 37.5 40 37.5 L 32.5184 37.5 C 31.5238 37.5 30.57 37.1049 29.8667 36.4017 L 27.7957 34.3306 C 26.6236 33.1585 25.0338 32.5 23.3762 32.5 L 20 32.5 C 13.0964 32.5 7.5 26.9036 7.5 20 C 7.5 13.0964 13.0964 7.5 20 7.5 L 40 7.5 C 46.9036 7.5 52.5 13.0964 52.5 20 C 52.5 26.9036 46.9036 32.5 40 32.5 L 35.1961 32.5 C 34.2015 32.5 33.2477 32.1049 32.5444 31.4017 L 30.4733 29.3306 C 29.3012 28.1585 27.7115 27.5 26.0539 27.5 L 20 27.5 C 15.8579 27.5 12.5 24.1421 12.5 20 C 12.5 15.8579 15.8579 12.5 20 12.5 L 40 12.5 C 44.1421 12.5 47.5 15.8579 47.5 20 C 47.5 24.0916 44.2235 27.418 40.1512 27.4985 L 40.1504 27.5 L 38.3211 27.5 C 37.3265 27.5 36.3727 27.1049 35.6694 26.4017 L 33.5983 24.3306 C 32.6366 23.3688 31.3937 22.7529 30.0628 22.5628 L 30 22.5 L 20 22.5 C 18.6193 22.5 17.5 21.3807 17.5 20 C 17.5 18.6193 18.6193 17.5 20 17.5 L 40 17.5 C 41.3807 17.5 42.5 18.6193 42.5 20 C 42.5 21.3807 41.3807 22.5 40 22.5 L 35 22.5 L 36.7678 24.2678 C 37.2366 24.7366 37.8725 25 38.5355 25 L 40 25 C 42.7614 25 45 22.7614 45 20 C 45 17.2386 42.7614 15 40 15 L 20 15 C 17.2386 15 15 17.2386 15 20 C 15 22.7614 17.2386 25 20 25 L 29.1789 25 C 30.1735 25 31.1273 25.3951 31.8306 26.0983 L 33.9017 28.1694 C 35.0738 29.3415 36.6635 30 38.3211 30 L 40.625 30 L 40.625 29.9808 C 45.8567 29.6582 50 25.3129 50 20 C 50 14.4772 45.5228 10 40 10 L 20 10 C 14.4772 10 10 14.4772 10 20 C 10 25.5229 14.4772 30 20 30 L 26.0539 30 C 27.0485 30 28.0023 30.3951 28.7056 31.0983 L 30.7767 33.1694 C 31.9488 34.3415 33.5385 35 35.1961 35 L 40 35 C 48.2843 35 55 28.2843 55 20 C 55 11.7157 48.2843 5 40 5 L 20 5 C 11.7157 5 5 11.7157 5 20 C 5 28.2843 11.7157 35 20 35 L 23.3762 35 C 24.3708 35 25.3246 35.3951 26.0279 36.0983 L 28.099 38.1694 C 29.2711 39.3415 30.8608 40 32.5184 40 L 40 40 C 51.0457 40 60 31.0457 60 20 C 60 8.9543 51.0457 -9.65645e-7 40 0 L 20 0.00000413264 C 8.9543 0.00000509829 -9.65645e-7 8.95431 0 20 C 9.65645e-7 31.0457 8.95431 40 20 40 Z" stroke-linecap="round" />
</g>
</g>
</g>
</svg>